<svg width="52" height="52" viewBox="0 0 52 52" fill="none" xmlns="http://www.w3.org/2000/svg">
<g clip-path="url(#clip0_328_797)">
<path d="M0 0H52V52H0V0Z" fill="#1C1F35"/>
<path d="M24.9844 23.0547H28.7422L28.5391 23.4609L27.4219 25.0859L29.0469 24.9844L30.2656 23.3594L30.4688 23.0547H34.3281L33.7188 23.9688L32.2969 25.8984L31.8906 26.5078H22.5469L22.75 26L24.0703 24.2734L24.9844 23.0547Z" fill="#FBB03B"/>
<path d="M12.4922 23.0547H20.8203L21.8359 23.5625L22.2422 24.1719V25.0859L21.6328 26L21.2266 26.5078H17.875L17.9766 26L18.5859 25.1875L18.6875 24.8828H11.1719L11.7812 23.9688L12.4922 23.0547Z" fill="#FBB03B"/>
<path d="M13.3047 25.2891H16.8594V25.6953L16.1484 26.7109V26.9141L20.8203 27.0156L20.2109 27.7266L19.5 28.3359L18.3828 28.8438L17.7734 28.9453H10.6641L11.2734 28.0312L12.6953 26.1016L13.3047 25.2891Z" fill="#FBB03B"/>
<path d="M32.6016 27.0156H41.3359L40.7266 27.9297L40.0156 28.9453H33.0078L32.3984 28.6406L32.0938 28.2344V27.7266L32.6016 27.0156Z" fill="#FBB03B"/>
<path d="M35.5469 23.0547H39.6094L39 23.9688L37.5781 25.8984L37.1719 26.5078H33.1094L33.3125 26.1016L34.6328 24.2734L35.5469 23.0547Z" fill="#FBB03B"/>
<path d="M27.5234 27.0156H31.3828L30.9766 27.7266L30.0625 28.9453H26.2031L26.8125 28.0312L27.5234 27.0156Z" fill="#FBB03B"/>
<path d="M22.0391 27.0156H25.8984L25.2891 27.9297L24.4766 28.9453H20.7188L21.125 28.2344L22.0391 27.0156Z" fill="#FBB03B"/>
<path d="M5.17969 26.9141H11.375L11.1719 27.3203L11.0703 27.4219H5.17969V26.9141Z" fill="#FBB03B"/>
<path d="M42.0469 26.9141H46.8203V27.4219H41.8438L42.0469 26.9141Z" fill="#FBB03B"/>
<path d="M40.9297 28.5391H46.8203V28.9453H40.625L40.9297 28.5391Z" fill="#FBB03B"/>
<path d="M5.17969 27.7266H10.7656L10.5625 28.1328H5.17969V27.7266Z" fill="#FBB03B"/>
<path d="M41.4375 27.7266H46.8203V28.1328H41.2344L41.4375 27.7266Z" fill="#FBB03B"/>
<path d="M5.17969 28.5391H10.1562L9.95312 28.9453H5.17969V28.5391Z" fill="#FBB03B"/>
</g>
<defs>
<clipPath id="clip0_328_797">
<rect width="52" height="52" fill="white"/>
</clipPath>
</defs>
</svg>
