<svg width="52" height="52" viewBox="0 0 52 52" fill="none" xmlns="http://www.w3.org/2000/svg">
<g clip-path="url(#clip0_326_712)">
<path d="M9.24527 0.339571C9.33269 0.336174 9.42012 0.332778 9.51019 0.329278C9.60683 0.326041 9.70348 0.322803 9.80305 0.319468C9.90533 0.315727 10.0076 0.311985 10.113 0.30813C10.4581 0.295768 10.8033 0.284235 11.1485 0.272809C11.2692 0.268679 11.3898 0.264549 11.5141 0.260295C13.8359 0.181346 16.158 0.131211 18.4807 0.0935311C18.8625 0.0873257 19.2443 0.0809034 19.6261 0.0743456C19.74 0.0723937 19.74 0.0723937 19.8563 0.0704024C20.9242 0.0516338 21.9911 0.0203378 23.0584 -0.0210446C24.8937 -0.0922045 26.728 -0.140307 28.5647 -0.142863C28.6708 -0.143079 28.6709 -0.143079 28.7791 -0.143298C32.0368 -0.149929 35.135 -0.304662 37.2678 2.09308C38.4636 3.33351 39.7617 3.96096 40.0222 6.76279C40.0223 6.9044 40.0223 6.9044 40.0224 7.04887C40.0226 7.36653 40.022 7.68419 40.0215 8.00185C40.0215 8.22903 40.0215 8.45621 40.0215 8.68339C40.0216 9.30133 40.021 9.91927 40.0203 10.5372C40.0196 11.1826 40.0196 11.8279 40.0194 12.4732C40.0192 13.5568 40.0185 14.6404 40.0176 15.7239C40.0167 16.84 40.016 17.9562 40.0155 19.0723C40.0155 19.1755 40.0155 19.1755 40.0155 19.2807C40.0153 19.6258 40.0152 19.9709 40.0151 20.3159C40.014 23.1792 40.0122 26.0424 40.01 28.9056C40.0883 28.9205 40.1665 28.9354 40.2472 28.9508C40.5178 29.0072 40.5178 29.0072 40.7844 29.096C41.2451 29.1131 41.5333 28.9343 41.9321 28.7156C42.3795 28.5513 42.692 28.4531 43.1584 28.6009C43.5846 28.9081 43.9476 29.2585 44.3122 29.6355C44.4847 29.813 44.6616 29.985 44.8395 30.1571C45.7716 31.0835 45.7716 31.0835 45.7895 31.6438C45.7347 32.0029 45.6121 32.3129 45.4372 32.6317C45.1975 33.0702 45.1621 33.2948 45.2912 33.7806C45.3855 34.0428 45.4829 34.2982 45.5896 34.555C45.6165 34.6215 45.6434 34.688 45.6711 34.7565C45.7458 34.9398 45.8231 35.1219 45.9006 35.304C45.9251 35.3804 45.9496 35.4567 45.9748 35.5353C46.221 35.8695 46.6782 35.9499 47.0598 36.0782C47.5304 36.2482 47.7694 36.4029 48.0334 36.8275C48.0731 37.1183 48.0905 37.3689 48.0874 37.659C48.0877 37.7382 48.0881 37.8175 48.0885 37.8991C48.0888 38.0661 48.0881 38.233 48.0864 38.4C48.0842 38.6548 48.0863 38.9094 48.0889 39.1642C48.0887 39.3269 48.0882 39.4895 48.0874 39.6522C48.0882 39.7279 48.089 39.8037 48.0898 39.8818C48.0833 40.2487 48.0441 40.4665 47.8491 40.7808C47.5583 41.0569 47.2463 41.1397 46.8718 41.2518C46.4451 41.3994 46.1708 41.5058 45.9053 41.8822C45.7824 42.1914 45.6881 42.5002 45.5959 42.8197C45.5191 42.9676 45.439 43.1139 45.3547 43.2576C45.154 43.6542 45.1692 43.9084 45.2912 44.3431C45.3593 44.4941 45.4293 44.6443 45.5007 44.7938C45.7167 45.2658 45.788 45.5514 45.6975 46.0697C45.5666 46.2545 45.5666 46.2545 45.3936 46.4442C45.3292 46.5148 45.2649 46.5854 45.1986 46.6582C44.8355 47.0416 44.4658 47.4175 44.0915 47.7899C44.0141 47.8677 43.9366 47.9455 43.8568 48.0257C43.7828 48.0996 43.7088 48.1735 43.6325 48.2497C43.5324 48.3496 43.5324 48.3496 43.4302 48.4516C43.1842 48.6787 43.0736 48.7088 42.7327 48.7384C42.362 48.7115 42.1475 48.631 41.8242 48.4574C41.4309 48.2504 41.0554 48.0591 40.6038 48.1402C40.1688 48.2884 39.7759 48.5042 39.3755 48.727C39.1205 48.8485 38.8673 48.8854 38.5881 48.9134C38.5622 49.0092 38.5622 49.0092 38.5357 49.107C38.1503 50.4684 38.1503 50.4684 37.674 50.9447C37.3801 50.9662 37.0961 50.9755 36.802 50.9752C36.7153 50.9756 36.6287 50.9761 36.5394 50.9765C36.3558 50.9771 36.1723 50.9772 35.9887 50.9767C35.7081 50.9764 35.4275 50.9788 35.1469 50.9814C34.9686 50.9816 34.7903 50.9817 34.6121 50.9815C34.4862 50.983 34.4862 50.983 34.3578 50.9844C34.0077 50.9816 33.7739 50.9765 33.4601 50.8123C33.2621 50.5896 33.2234 50.3619 33.1576 50.0764C33.0352 49.5831 32.9079 49.161 32.4759 48.8612C31.898 48.5703 31.2869 48.3796 30.6662 48.2025C30.5657 48.169 30.4651 48.1354 30.3615 48.1009C30.0308 48.2416 29.7174 48.4074 29.3987 48.5734C28.9874 48.7309 28.654 48.8533 28.2287 48.7103C28.0371 48.504 28.0371 48.504 27.8427 48.2296C27.2278 47.3669 26.5669 46.5714 25.4853 46.3466C24.0701 46.1341 22.613 46.2053 21.1873 46.2389C20.5569 46.2512 19.9266 46.2505 19.2962 46.2511C18.1052 46.2543 16.9147 46.2685 15.7239 46.287C14.7733 46.3015 13.8228 46.3116 12.8721 46.318C12.7714 46.3187 12.7714 46.3187 12.6686 46.3194C11.9357 46.3243 11.2027 46.3284 10.4698 46.3327C10.2113 46.3342 9.95286 46.3357 9.6944 46.3372C9.50521 46.3383 9.50521 46.3383 9.31219 46.3395C8.56261 46.3442 7.81312 46.3518 7.0636 46.3621C6.59909 46.3684 6.13457 46.3736 5.67005 46.3787C5.45435 46.3814 5.23866 46.3846 5.02298 46.3884C4.72927 46.3936 4.43558 46.3969 4.14183 46.3998C4.01312 46.4028 4.01312 46.4028 3.8818 46.4059C3.5434 46.4077 3.29334 46.4005 2.99147 46.2395C2.68727 45.9027 2.72355 45.5484 2.72289 45.1166C2.72265 45.0503 2.72242 44.9839 2.72217 44.9155C2.72149 44.6915 2.72154 44.4675 2.72158 44.2434C2.72124 44.0818 2.72086 43.9202 2.72045 43.7586C2.71943 43.3133 2.71905 42.868 2.71878 42.4227C2.71839 41.9429 2.71741 41.4631 2.71653 40.9833C2.71452 39.8242 2.7135 38.6651 2.71259 37.5059C2.71215 36.9605 2.7116 36.415 2.71107 35.8695C2.70934 34.057 2.70787 32.2444 2.70713 30.4319C2.70694 29.9614 2.70675 29.491 2.70655 29.0205C2.7065 28.9036 2.70645 28.7866 2.7064 28.6661C2.70555 26.7704 2.70298 24.8748 2.69968 22.9791C2.69633 21.0341 2.6945 19.0891 2.69417 17.1442C2.69395 16.0516 2.69306 14.959 2.69047 13.8665C2.68827 12.9363 2.68744 12.0062 2.68843 11.076C2.6889 10.6012 2.68869 10.1264 2.68673 9.65164C2.68495 9.21723 2.68503 8.78287 2.68662 8.34846C2.68686 8.19106 2.68641 8.03366 2.68521 7.87626C2.68369 7.6627 2.68465 7.44929 2.68625 7.23573C2.68615 7.117 2.68606 6.99827 2.68595 6.87594C2.74721 6.49549 2.8764 6.32725 3.14277 6.05404C3.39055 5.93015 3.54893 5.94023 3.82579 5.94094C3.92541 5.94095 4.02503 5.94096 4.12767 5.94097C4.23548 5.94149 4.34328 5.94202 4.45436 5.94256C4.56453 5.9427 4.6747 5.94284 4.78822 5.94299C5.14111 5.94356 5.49399 5.94484 5.84688 5.94613C6.08571 5.94664 6.32454 5.9471 6.56337 5.94752C7.14974 5.94864 7.7361 5.95034 8.32246 5.95247C8.32179 5.89275 8.32111 5.83303 8.32041 5.7715C8.31366 5.14872 8.30907 4.52594 8.30573 3.90312C8.3042 3.67084 8.30212 3.43855 8.29948 3.20627C8.29577 2.87197 8.29405 2.53771 8.29271 2.20339C8.29114 2.0999 8.28956 1.99641 8.28794 1.88978C8.28781 1.34093 8.30833 0.938307 8.62715 0.468099C8.8554 0.353974 8.99157 0.34884 9.24527 0.339571ZM10.1506 2.0931C10.1506 14.2928 10.1506 26.4925 10.1506 39.0618C14.5076 39.0618 18.8646 39.0618 23.3537 39.0618C23.3872 38.2575 23.4207 37.4531 23.4553 36.6243C23.8935 36.2956 24.3157 36.15 24.8365 36.0102C25.0621 35.9331 25.2064 35.87 25.385 35.7103C25.5392 35.3464 25.6225 34.9817 25.6897 34.5931C25.562 34.5911 25.4344 34.5891 25.3029 34.587C24.8299 34.5793 24.3569 34.5703 23.8839 34.5609C23.6791 34.557 23.4743 34.5534 23.2695 34.5502C22.9753 34.5456 22.6811 34.5397 22.3869 34.5336C22.2952 34.5324 22.2034 34.5312 22.1089 34.53C22.0235 34.528 21.9382 34.526 21.8502 34.5239C21.7751 34.5226 21.7 34.5212 21.6226 34.5198C21.424 34.4915 21.424 34.4915 21.1193 34.2884C20.9734 33.7322 20.9734 33.7322 21.0178 33.4759C21.2248 33.1922 21.3918 32.9977 21.7443 32.9196C22.0148 32.8995 22.2815 32.8951 22.5527 32.8963C22.6512 32.8947 22.7497 32.8932 22.8511 32.8916C23.1647 32.8873 23.4781 32.8864 23.7917 32.8856C24.0047 32.8832 24.2177 32.8806 24.4306 32.8778C24.9519 32.8715 25.4731 32.8682 25.9943 32.8665C25.9735 32.8088 25.9527 32.7511 25.9313 32.6916C25.7617 32.2055 25.6425 31.7535 25.5881 31.2415C25.4013 31.2393 25.4013 31.2393 25.2107 31.237C24.749 31.2312 24.2874 31.2233 23.8257 31.2149C23.6259 31.2115 23.426 31.2086 23.2261 31.2063C22.9389 31.2029 22.6518 31.1976 22.3647 31.1919C22.2752 31.1913 22.1856 31.1906 22.0934 31.19C21.9684 31.187 21.9684 31.187 21.8409 31.1839C21.7676 31.1828 21.6943 31.1816 21.6187 31.1805C21.3651 31.1277 21.2767 31.0382 21.1193 30.8353C21.0178 30.4925 21.0178 30.4925 21.0178 30.1243C21.1856 29.8588 21.2571 29.7605 21.5256 29.6165C21.9561 29.5467 22.3815 29.5603 22.8165 29.5697C23.0755 29.57 23.3344 29.5703 23.5933 29.5705C24.0008 29.5739 24.4082 29.5784 24.8156 29.5841C25.2093 29.5886 25.6029 29.5889 25.9967 29.5888C26.1181 29.5918 26.2395 29.5948 26.3645 29.598C26.991 29.6057 26.991 29.6057 27.5471 29.3553C27.7215 29.1796 27.8721 28.9977 28.0256 28.804C28.3592 28.6372 28.6807 28.6486 29.0412 28.7025C29.3566 28.8242 29.6588 28.9605 29.9624 29.1091C30.5618 29.3129 31.0404 29.0523 31.593 28.804C32.2637 28.504 32.2637 28.504 32.5036 28.4634C32.7101 28.4161 32.7101 28.4161 32.8024 28.2326C32.8275 28.1627 32.8525 28.0929 32.8784 28.0209C32.9073 27.9447 32.9362 27.8685 32.966 27.79C32.9947 27.7099 33.0234 27.6297 33.0529 27.5472C33.11 27.3894 33.1681 27.232 33.2275 27.0751C33.2526 27.005 33.2776 26.9349 33.3035 26.8627C33.445 26.6045 33.5525 26.5057 33.8147 26.3665C34.0977 26.3392 34.3573 26.3286 34.6398 26.3332C34.7195 26.3334 34.7991 26.3336 34.8811 26.3338C35.0491 26.3345 35.2171 26.3359 35.3851 26.338C35.6419 26.3411 35.8986 26.3421 36.1553 26.3427C36.3188 26.3437 36.4823 26.3447 36.6457 26.3459C36.7606 26.3465 36.7606 26.3465 36.8778 26.3472C37.5964 26.357 37.5964 26.357 37.8772 26.4681C37.9835 26.678 37.9835 26.678 38.0549 26.9315C38.0795 27.0154 38.1041 27.0993 38.1295 27.1858C38.1554 27.283 38.1554 27.283 38.1818 27.3822C38.2154 27.3822 38.2489 27.3822 38.2834 27.3822C38.2834 20.612 38.2834 13.8418 38.2834 6.86653C36.8422 6.83302 34.8932 6.79733 33.4084 6.76279C33.3068 5.13997 33.4457 3.65912 33.4084 2.0931C25.7333 2.0931 18.0582 2.0931 10.1506 2.0931ZM35.135 3.31185C35.135 3.91513 35.135 4.51841 35.135 5.13997C35.7382 5.13997 36.3415 5.13997 36.9631 5.13997C36.5842 4.67922 36.184 4.24832 35.7634 3.82601C35.7134 3.77556 35.6683 3.71979 35.6119 3.67315C35.2365 3.36261 35.3889 3.46417 35.135 3.31185ZM4.46309 7.67903C4.46309 19.8787 4.46309 32.0784 4.46309 44.6478C11.5684 44.6478 18.6737 44.6478 25.9943 44.6478C26.363 43.9081 26.363 43.9081 26.184 43.4255C26.1193 43.2878 26.0518 43.1514 25.9816 43.0164C25.9158 42.8798 25.8499 42.7432 25.7841 42.6066C25.7503 42.5407 25.7166 42.4748 25.6818 42.4069C25.5881 42.2103 25.5881 42.2103 25.4592 41.8258C25.222 41.3852 24.975 41.307 24.5153 41.1566C24.411 41.1191 24.411 41.1191 24.3045 41.0808C24.1235 41.0158 23.9418 40.9527 23.76 40.89C23.6929 40.8565 23.6259 40.8229 23.5568 40.7884C23.3663 40.7783 23.1753 40.7749 22.9845 40.7744C22.8627 40.7738 22.741 40.7733 22.6155 40.7727C22.4799 40.7726 22.3443 40.7725 22.2086 40.7724C22.0663 40.7719 21.924 40.7714 21.7818 40.7708C21.4749 40.7697 21.1681 40.7688 20.8612 40.7682C20.376 40.7671 19.8907 40.765 19.4055 40.7628C18.0256 40.7565 16.6456 40.751 15.2656 40.7476C14.5038 40.7458 13.742 40.7428 12.9802 40.7387C12.577 40.7366 12.1738 40.735 11.7706 40.7348C11.3912 40.7345 11.0118 40.7329 10.6324 40.7303C10.427 40.7292 10.2215 40.7296 10.016 40.7301C9.8934 40.7289 9.77079 40.7278 9.64447 40.7267C9.48491 40.7261 9.48491 40.7261 9.32214 40.7256C8.98329 40.6801 8.7935 40.5936 8.52559 40.3822C8.41224 40.0633 8.41087 39.7577 8.40994 39.4215C8.40939 39.3082 8.40883 39.1949 8.40826 39.0782C8.40816 38.9537 8.40806 38.8292 8.40796 38.7009C8.4072 38.5026 8.4072 38.5026 8.40644 38.3002C8.40506 37.9329 8.4043 37.5656 8.40365 37.1983C8.40284 36.8023 8.40145 36.4063 8.40013 36.0103C8.39791 35.3241 8.39607 34.6379 8.39448 33.9517C8.39217 32.9596 8.38931 31.9675 8.38632 30.9753C8.38148 29.3657 8.37708 27.7561 8.37297 26.1465C8.36897 24.5828 8.36477 23.0191 8.36028 21.4554C8.36 21.3591 8.35972 21.2627 8.35944 21.1634C8.35805 20.68 8.35665 20.1966 8.35526 19.7132C8.34368 15.7018 8.33286 11.6904 8.32246 7.67903C7.04887 7.67903 5.77527 7.67903 4.46309 7.67903ZM34.7287 27.9915C34.6125 28.2775 34.6125 28.2775 34.4938 28.5692C34.4064 28.7843 34.3154 28.9981 34.2209 29.2103C34.1812 29.3013 34.1416 29.3923 34.1007 29.486C33.8384 29.816 33.5189 29.8939 33.1291 30.0101C32.3816 30.2494 31.7028 30.5499 31.0082 30.9142C30.5231 31.0904 30.1725 31.024 29.7002 30.8345C29.552 30.7584 29.4039 30.6822 29.2558 30.606C28.9841 30.5105 28.8973 30.511 28.635 30.6322C28.4296 30.816 28.2403 30.9981 28.051 31.1971C27.9995 31.2499 27.9481 31.3027 27.8951 31.3572C27.7686 31.4872 27.6431 31.6182 27.5178 31.7493C27.7106 32.3503 27.7106 32.3503 27.9431 32.9364C28.11 33.4116 28.0481 33.772 27.8399 34.2194C27.759 34.3826 27.677 34.5452 27.5939 34.7073C27.3118 35.2712 27.0686 35.802 26.9084 36.4149C26.7655 36.8834 26.7655 36.8834 26.5033 37.0822C26.268 37.189 26.0388 37.2617 25.7912 37.3353C25.5566 37.4358 25.322 37.5364 25.0803 37.64C25.0803 38.3103 25.0803 38.9806 25.0803 39.6712C25.3233 39.7529 25.5663 39.8346 25.8166 39.9188C26.5194 40.1847 26.5194 40.1847 26.7775 40.4782C26.8795 40.7145 26.9457 40.9454 27.01 41.1947C27.0902 41.4156 27.1728 41.6356 27.2575 41.8548C27.2997 41.9671 27.3418 42.0795 27.3853 42.1952C27.5055 42.4854 27.6413 42.7417 27.8034 43.0101C28.0337 43.4136 28.107 43.668 28.0256 44.14C27.9007 44.4327 27.7662 44.7159 27.6189 44.9981C27.5052 45.2418 27.5052 45.2418 27.5198 45.4571C27.673 45.7745 27.9068 46.007 28.1525 46.2537C28.2011 46.306 28.2497 46.3583 28.2997 46.4122C28.4611 46.5826 28.4611 46.5826 28.7365 46.7806C29.1702 46.7727 29.5265 46.5524 29.9069 46.3581C30.3876 46.195 30.795 46.2151 31.2478 46.4362C31.3804 46.5075 31.5124 46.5801 31.6438 46.6536C32.166 46.9338 32.6538 47.1488 33.2307 47.3011C33.6217 47.4134 33.783 47.4599 34.0749 47.7518C34.2772 48.2356 34.4576 48.7216 34.6272 49.2181C35.2975 49.2181 35.9678 49.2181 36.6584 49.2181C36.7401 48.9751 36.8218 48.7321 36.906 48.4818C37.1719 47.779 37.1719 47.779 37.4653 47.5209C37.7016 47.4189 37.9327 47.3527 38.1818 47.2884C38.4006 47.2081 38.6185 47.1254 38.8356 47.0408C39.0043 46.9778 39.0043 46.9778 39.1764 46.9135C39.4782 46.7904 39.7516 46.6479 40.0354 46.4886C40.5321 46.2342 40.8989 46.2141 41.4318 46.3743C41.6738 46.4789 41.907 46.5891 42.1384 46.7151C42.3438 46.8015 42.3438 46.8015 42.5419 46.7207C42.8167 46.5335 43.0512 46.3248 43.2917 46.095C43.3835 46.0097 43.4753 45.9243 43.5698 45.8364C43.7994 45.5763 43.7994 45.5763 43.7602 45.252C43.6516 44.9058 43.5057 44.6054 43.3353 44.2864C43.1939 43.8209 43.3137 43.4335 43.5091 43.0006C43.5693 42.8906 43.6296 42.7806 43.6916 42.6673C43.9703 42.1487 44.1592 41.6458 44.32 41.0804C44.5249 40.4351 44.5249 40.4351 44.76 40.2104C44.9689 40.1053 45.1681 40.04 45.3928 39.9759C45.5629 39.9017 45.7322 39.8255 45.9006 39.7474C46.0347 39.6887 46.1687 39.6301 46.3068 39.5697C46.3068 38.9329 46.3068 38.2961 46.3068 37.64C46.0597 37.5394 45.8125 37.4389 45.5578 37.3353C45.4801 37.3035 45.4024 37.2717 45.3224 37.2389C44.9629 37.0841 44.9629 37.0841 44.5803 37.0306C44.5642 36.9726 44.5481 36.9146 44.5315 36.8548C44.2622 35.9189 43.9441 35.0047 43.4758 34.1488C43.2508 33.7081 43.2111 33.4548 43.3615 32.9681C43.4661 32.7314 43.5739 32.4987 43.6924 32.2687C43.7875 31.9977 43.7846 31.9101 43.6662 31.6478C43.4936 31.4378 43.3238 31.249 43.133 31.0574C43.0844 31.0051 43.0359 30.9528 42.9858 30.899C42.8244 30.7285 42.8244 30.7285 42.549 30.5306C42.0999 30.5381 41.7018 30.7754 41.2993 30.963C40.6801 31.1335 40.1888 30.9004 39.6481 30.6068C38.5074 29.9827 38.5074 29.9827 37.2678 29.7181C37.2493 29.6615 37.2309 29.605 37.2118 29.5467C37.1863 29.4692 37.1608 29.3917 37.1345 29.3118C37.1097 29.2364 37.085 29.161 37.0595 29.0833C36.933 28.7168 36.7945 28.3546 36.6584 27.9915C36.0216 27.9915 35.3848 27.9915 34.7287 27.9915Z" fill="#1C1F35"/>
<path d="M40.3331 34.0867C41.5429 35.0965 42.3219 36.5318 42.5547 38.0857C42.7012 39.8061 42.3925 41.525 41.2729 42.8937C40.1194 44.2229 38.6521 45.1428 36.8672 45.2967C35.1182 45.4042 33.4373 44.9168 32.0905 43.7802C30.8009 42.6161 30.0704 41.0416 29.9388 39.3184C29.8807 37.492 30.5543 35.8013 31.7955 34.4739C34.2079 32.1586 37.7182 32.1507 40.3331 34.0867ZM32.8238 35.9212C32.0771 36.8491 31.6253 37.9836 31.6618 39.1831C31.8394 40.7188 32.512 41.8227 33.7061 42.7957C34.5494 43.3911 35.6401 43.6646 36.6641 43.5701C37.9557 43.3435 39.0836 42.8473 39.905 41.7991C40.6747 40.6748 41.0148 39.4487 40.7766 38.098C40.477 36.86 39.7883 35.7822 38.6954 35.1023C36.7247 34.0095 34.4155 34.2458 32.8238 35.9212Z" fill="#FBD264"/>
<path d="M22.7728 19.1803C22.8827 19.1796 22.9926 19.1788 23.1059 19.1781C23.2265 19.1778 23.3471 19.1775 23.4714 19.1773C23.5984 19.1766 23.7254 19.1759 23.8563 19.1752C24.2775 19.1732 24.6988 19.172 25.12 19.171C25.2651 19.1706 25.4102 19.1702 25.5553 19.1698C26.2368 19.1678 26.9183 19.1664 27.5997 19.1655C28.3863 19.1646 29.1728 19.1619 29.9593 19.1578C30.5674 19.1547 31.1755 19.1532 31.7836 19.1529C32.1468 19.1526 32.5099 19.1517 32.873 19.1492C33.2781 19.1464 33.6831 19.1468 34.0882 19.1475C34.2085 19.1462 34.3287 19.1449 34.4525 19.1436C35.2654 19.1487 35.2654 19.1487 35.6698 19.3886C35.8867 19.6426 35.9469 19.7579 35.9912 20.0902C35.9514 20.4284 35.8846 20.5839 35.6356 20.8159C35.1961 21.0604 34.6519 20.9896 34.1635 20.9843C34.0333 20.9848 33.9031 20.9854 33.769 20.986C33.4126 20.9874 33.0564 20.9857 32.7001 20.9833C32.327 20.9813 31.9539 20.9819 31.5808 20.9821C30.9543 20.9821 30.328 20.9801 29.7015 20.9768C28.9774 20.9731 28.2534 20.9722 27.5293 20.9729C26.8324 20.9735 26.1355 20.9725 25.4386 20.9705C25.1422 20.9696 24.8457 20.9694 24.5493 20.9695C24.1354 20.9696 23.7216 20.9672 23.3078 20.9644C23.1847 20.9647 23.0616 20.965 22.9347 20.9653C22.8221 20.9642 22.7095 20.963 22.5934 20.9618C22.4956 20.9615 22.3978 20.9611 22.297 20.9607C21.9942 20.915 21.8549 20.8244 21.6328 20.6171C21.5247 20.348 21.5065 20.0928 21.5312 19.8046C21.8572 19.2575 22.1645 19.183 22.7728 19.1803Z" fill="#FBD264"/>
<path d="M22.875 8.5177C22.9825 8.51727 23.09 8.51684 23.2008 8.51639C23.3182 8.51644 23.4356 8.51648 23.5565 8.51653C23.6806 8.51619 23.8047 8.51585 23.9325 8.5155C24.2724 8.5147 24.6123 8.51436 24.9523 8.5143C25.1647 8.51422 25.3772 8.51401 25.5897 8.51374C26.3311 8.5128 27.0725 8.51238 27.8139 8.51246C28.5047 8.51253 29.1955 8.51145 29.8863 8.50985C30.4797 8.50852 31.0732 8.50798 31.6666 8.50804C32.0209 8.50807 32.3752 8.50778 32.7294 8.5067C33.1245 8.50554 33.5196 8.506 33.9147 8.50661C34.0905 8.50576 34.0905 8.50576 34.2699 8.50488C34.4315 8.50552 34.4315 8.50552 34.5965 8.50617C34.7365 8.50609 34.7365 8.50609 34.8794 8.50601C35.265 8.54332 35.5526 8.6419 35.8325 8.91214C35.9949 9.21977 36.0023 9.40615 35.9531 9.75003C35.8272 10.0195 35.8272 10.0195 35.5469 10.2578C35.1215 10.3363 34.6986 10.325 34.2672 10.3203C34.0705 10.3212 34.0705 10.3212 33.8698 10.322C33.5103 10.3235 33.1509 10.3218 32.7915 10.3194C32.4152 10.3173 32.039 10.3179 31.6628 10.3182C31.031 10.3182 30.3992 10.3161 29.7674 10.3129C29.037 10.3091 28.3067 10.3083 27.5763 10.309C26.8736 10.3096 26.1709 10.3085 25.4682 10.3065C25.1692 10.3057 24.8702 10.3054 24.5712 10.3056C24.1537 10.3057 23.7362 10.3032 23.3187 10.3005C23.1945 10.3008 23.0703 10.3011 22.9423 10.3014C22.8287 10.3002 22.7151 10.2991 22.598 10.2979C22.4993 10.2975 22.4006 10.2971 22.2989 10.2968C21.9949 10.2512 21.8556 10.1614 21.6328 9.95316C21.5247 9.68397 21.5071 9.42893 21.5313 9.14066C21.696 8.85388 21.8033 8.67866 22.1221 8.56982C22.3769 8.52552 22.6163 8.51818 22.875 8.5177Z" fill="#1C1F35"/>
<path d="M22.6841 22.5326C22.8195 22.5317 22.8195 22.5317 22.9576 22.5308C23.0564 22.5307 23.1552 22.5306 23.257 22.5305C23.4133 22.5297 23.4133 22.5297 23.5728 22.529C23.9182 22.5275 24.2636 22.5268 24.6091 22.5262C24.8488 22.5256 25.0885 22.5251 25.3282 22.5245C25.8311 22.5234 26.334 22.5228 26.8368 22.5225C27.4815 22.5219 28.1262 22.5195 28.7709 22.5166C29.2661 22.5147 29.7614 22.5141 30.2566 22.514C30.4943 22.5137 30.732 22.5129 30.9697 22.5115C31.302 22.5098 31.6344 22.51 31.9667 22.5106C32.0651 22.5097 32.1635 22.5088 32.2648 22.5078C32.7612 22.5109 33.1191 22.5166 33.5156 22.8515C33.6725 23.1392 33.7519 23.3302 33.6695 23.6549C33.4735 24.1422 33.4735 24.1422 33.2109 24.2734C33.0626 24.2834 32.9138 24.2871 32.7651 24.2877C32.6246 24.2885 32.6246 24.2885 32.4812 24.2894C32.3781 24.2895 32.275 24.2897 32.1688 24.2898C32.0604 24.2903 31.9521 24.2908 31.8405 24.2913C31.4808 24.2928 31.1212 24.2935 30.7615 24.294C30.5123 24.2946 30.2631 24.2952 30.0139 24.2958C29.4909 24.2969 28.9678 24.2975 28.4448 24.2978C27.7738 24.2984 27.1028 24.3008 26.4318 24.3037C25.9169 24.3056 25.402 24.3061 24.887 24.3063C24.6396 24.3066 24.3922 24.3074 24.1448 24.3087C23.799 24.3105 23.4533 24.3103 23.1075 24.3096C23.0048 24.3105 22.9021 24.3115 22.7963 24.3124C22.7021 24.3119 22.6078 24.3113 22.5107 24.3107C22.4289 24.3109 22.3472 24.311 22.263 24.3112C21.9823 24.2638 21.8418 24.1584 21.6328 23.9687C21.5247 23.6996 21.5065 23.4444 21.5312 23.1562C21.833 22.6496 22.1134 22.5348 22.6841 22.5326Z" fill="#1C1F35"/>
<path d="M22.5093 11.9452C22.6033 11.9442 22.6973 11.9432 22.7941 11.9422C22.9476 11.9429 22.9476 11.9429 23.1043 11.9436C23.2669 11.9425 23.2669 11.9425 23.4327 11.9414C23.7913 11.9396 24.1498 11.94 24.5083 11.9406C24.7572 11.9401 25.0062 11.9396 25.2551 11.9389C25.7769 11.938 26.2987 11.9383 26.8206 11.9393C27.49 11.9405 28.1593 11.9384 28.8287 11.9354C29.3428 11.9336 29.8568 11.9336 30.3709 11.9342C30.6177 11.9342 30.8646 11.9336 31.1114 11.9323C31.4562 11.9308 31.8009 11.9319 32.1457 11.9336C32.2993 11.9322 32.2993 11.9322 32.4559 11.9307C33.1467 11.938 33.1467 11.938 33.4747 12.1758C33.6465 12.4351 33.7113 12.5861 33.7188 12.8987C33.6014 13.2312 33.5224 13.4449 33.212 13.6258C32.7692 13.7494 32.3447 13.7394 31.8871 13.7374C31.7848 13.7378 31.6825 13.7382 31.5771 13.7385C31.2394 13.7394 30.9017 13.7388 30.564 13.7381C30.3291 13.7383 30.0942 13.7385 29.8594 13.7387C29.3673 13.739 28.8752 13.7386 28.3831 13.7376C27.7523 13.7365 27.1215 13.7371 26.4907 13.7384C26.0058 13.7391 25.5208 13.7389 25.0358 13.7383C24.8033 13.7382 24.5707 13.7384 24.3381 13.7388C24.013 13.7394 23.688 13.7386 23.363 13.7374C23.2668 13.7379 23.1707 13.7383 23.0716 13.7387C22.236 13.7333 22.236 13.7333 21.836 13.508C21.5696 13.1972 21.5305 13.0446 21.5376 12.6321C21.6861 12.0974 21.9692 11.9469 22.5093 11.9452Z" fill="#1C1F35"/>
<path d="M18.3828 30.3668C18.624 30.5255 18.624 30.5255 18.7891 30.7731C18.8458 31.1786 18.8736 31.4376 18.6682 31.7972C18.497 32.0193 18.3169 32.228 18.1289 32.4362C17.9981 32.5873 17.8673 32.7384 17.7365 32.8896C17.673 32.9619 17.6094 33.0341 17.5439 33.1086C17.2528 33.4439 16.9838 33.7953 16.7122 34.1465C16.4787 34.4152 16.2854 34.5229 15.939 34.6007C15.3063 34.4903 14.9649 34.0612 14.5234 33.6168C14.4522 33.5493 14.381 33.4817 14.3076 33.4121C14.0097 33.1266 13.7636 32.8893 13.6094 32.4996C13.6421 31.8785 13.6421 31.8785 13.8569 31.5983C14.1925 31.3567 14.4162 31.3214 14.8281 31.3825C15.051 31.5539 15.247 31.7379 15.4446 31.9379C15.652 32.1355 15.652 32.1355 16.0469 32.0934C16.2532 31.8667 16.4321 31.6477 16.6118 31.4015C16.7091 31.2716 16.8066 31.1419 16.9042 31.0123C16.9681 30.9253 16.9681 30.9253 17.0334 30.8366C17.4346 30.3298 17.7344 30.1948 18.3828 30.3668Z" fill="#1C1F35"/>
<path d="M18.163 19.6688C18.3828 19.7033 18.3828 19.7033 18.6431 19.8556C18.847 20.2102 18.8645 20.5276 18.7891 20.922C18.6257 21.2207 18.4125 21.4627 18.186 21.7155C18.0648 21.8571 17.9435 21.9987 17.8222 22.1404C17.7622 22.2091 17.7021 22.2778 17.6403 22.3486C17.4017 22.6246 17.1756 22.9092 16.9482 23.1945C16.6387 23.5811 16.4339 23.8349 15.9263 23.9245C15.3631 23.8414 15.1195 23.5487 14.7266 23.1564C14.6362 23.0756 14.5459 22.9948 14.4528 22.9116C13.6586 22.1796 13.6586 22.1796 13.5713 21.7028C13.6161 21.2617 13.6737 21.1025 14.0156 20.8205C14.402 20.708 14.6204 20.6734 14.9932 20.8332C15.2649 21.0477 15.5044 21.28 15.7422 21.5314C16.0654 21.4237 16.1147 21.3777 16.3103 21.1196C16.3584 21.0571 16.4064 20.9947 16.4559 20.9304C16.5053 20.8648 16.5546 20.7992 16.6055 20.7316C16.7037 20.6026 16.8021 20.4738 16.9006 20.3452C16.9439 20.2879 16.9872 20.2305 17.0318 20.1715C17.3942 19.7236 17.5871 19.6453 18.163 19.6688Z" fill="#1C1F35"/>
<path d="M18.3828 9.039C18.6367 9.19134 18.6367 9.19134 18.7891 9.44525C18.8423 9.94965 18.8469 10.1608 18.584 10.6017C18.4914 10.7151 18.3968 10.8268 18.3003 10.9369C18.2257 11.0267 18.2257 11.0267 18.1496 11.1184C17.9921 11.307 17.832 11.4933 17.6719 11.6796C17.5664 11.8055 17.4611 11.9315 17.3561 12.0577C16.4062 13.1946 16.4062 13.1946 15.9834 13.2602C15.4017 13.2424 15.1156 12.8868 14.7266 12.4921C14.6364 12.4113 14.5462 12.3306 14.4532 12.2473C13.6587 11.5161 13.6587 11.5161 13.5713 11.0385C13.6161 10.5974 13.6737 10.4383 14.0156 10.1562C14.3584 10.0483 14.3584 10.0483 14.7266 10.0546C15.129 10.2677 15.4334 10.5346 15.7422 10.8671C16.2076 10.7087 16.4318 10.3315 16.7134 9.95306C16.8104 9.82368 16.9079 9.69459 17.0058 9.56586C17.0697 9.48004 17.0697 9.48004 17.1349 9.39249C17.4862 8.98832 17.8816 8.96035 18.3828 9.039Z" fill="#1C1F35"/>
</g>
<defs>
<clipPath id="clip0_326_712">
<rect width="52" height="52" fill="white"/>
</clipPath>
</defs>
</svg>
