<svg width="73" height="73" viewBox="0 0 73 73" fill="none" xmlns="http://www.w3.org/2000/svg">
<g id="&#34;">
<circle id="Background" cx="36.4252" cy="36.5004" r="36.4252" fill="url(#paint0_linear_134_3826)"/>
<path id="&#226;&#128;&#156;" d="M34.2686 25.8252C34.7696 25.8252 35.1991 26.0041 35.557 26.362C35.8433 26.7199 35.9864 27.1494 35.9864 27.6504C35.9864 28.223 35.879 28.7957 35.6643 29.3683L29.9739 44.0774C29.616 44.7932 29.2581 45.3658 28.9003 45.7953C28.4708 46.2963 27.7908 46.5468 26.8603 46.5468L23.3172 46.5468C22.7446 46.5468 22.3151 46.3321 22.0288 45.9026C21.6709 45.4732 21.5636 44.9005 21.7067 44.1848L24.0688 28.9388C24.1404 28.0799 24.4267 27.3283 24.9277 26.6841C25.4288 26.1115 26.1803 25.8252 27.1824 25.8252L34.2686 25.8252ZM51.4471 25.8252C51.9482 25.8252 52.3776 26.0041 52.7355 26.362C53.0218 26.7199 53.165 27.1494 53.165 27.6504C53.165 28.223 53.0576 28.7957 52.8429 29.3683L47.1525 44.0774C46.7946 44.7932 46.4009 45.3658 45.9714 45.7953C45.542 46.2963 44.8978 46.5468 44.0389 46.5468H40.4958C39.9232 46.5468 39.4937 46.3321 39.2074 45.9026C38.8495 45.4732 38.7421 44.9006 38.8853 44.1848L41.2473 28.9388C41.3189 28.0799 41.6052 27.3283 42.1063 26.6841C42.6073 26.1115 43.3231 25.8252 44.2536 25.8252L51.4471 25.8252Z" fill="#17495B"/>
</g>
<defs>
<linearGradient id="paint0_linear_134_3826" x1="-2.06535" y1="15.8594" x2="89.5811" y2="22.3677" gradientUnits="userSpaceOnUse">
<stop stop-color="#F8A71B"/>
<stop offset="0.507189" stop-color="#FBC65D"/>
<stop offset="1" stop-color="#FCE2A0"/>
</linearGradient>
</defs>
</svg>
