<svg width="52" height="52" viewBox="0 0 52 52" fill="none" xmlns="http://www.w3.org/2000/svg">
<g clip-path="url(#clip0_328_770)">
<path d="M34.4147 12.7319C36.8267 14.8487 38.4387 17.9126 38.6954 21.1255C39.0166 26.6125 36.0563 31.5005 32.6447 35.5766C32.4386 35.8244 32.2382 36.0766 32.0367 36.3281C31.5549 36.9164 31.0382 37.4699 30.5188 38.0249C30.3749 38.1797 30.2327 38.3358 30.0911 38.4926C29.1221 39.5643 28.1191 40.6051 27.0157 41.5395C26.8461 41.6894 26.6768 41.8396 26.5079 41.9902C26.4304 42.0592 26.3529 42.1282 26.273 42.1993C26.1882 42.2749 26.1882 42.2749 26.1016 42.352C25.7599 42.2017 25.5186 42.0076 25.2447 41.7553C25.1106 41.6322 25.1106 41.6322 24.9737 41.5066C24.8767 41.4169 24.7797 41.3272 24.6797 41.2348C24.5765 41.141 24.4733 41.0472 24.3699 40.9535C23.338 40.0147 22.3064 39.0547 21.4048 37.988C21.2207 37.7749 21.0294 37.5695 20.8369 37.364C20.2272 36.7112 19.6736 36.0257 19.1297 35.3176C18.9991 35.1498 18.8657 34.9848 18.7308 34.8205C17.3815 33.1672 16.2086 31.3515 15.2344 29.4536C15.1989 29.3856 15.1634 29.3176 15.1268 29.2475C13.3807 25.8723 12.7166 22.167 13.8438 18.4883C14.9009 15.2187 17.1553 12.5581 20.2018 10.9529C24.9018 8.61454 30.4208 9.43283 34.4147 12.7319ZM22.0391 19.1958C21.8071 19.5215 21.6127 19.856 21.4297 20.2114C21.3875 20.2912 21.3452 20.3711 21.3016 20.4534C20.8411 21.4843 20.8268 22.9149 21.1885 23.9819C21.2637 24.1494 21.344 24.3147 21.4297 24.477C21.4728 24.5629 21.5159 24.6488 21.5603 24.7373C22.2392 25.9778 23.2561 26.7577 24.5782 27.2192C26.0419 27.6159 27.3548 27.3639 28.6637 26.6416C29.8068 25.9665 30.5576 24.8347 30.9338 23.5683C31.1563 22.4848 31.0877 21.1899 30.5704 20.2114C30.5261 20.1243 30.4819 20.0373 30.4363 19.9476C29.8869 18.9523 29.1412 18.2864 28.1329 17.7739C28.0531 17.7317 27.9734 17.6896 27.8913 17.6461C25.8713 16.7421 23.4071 17.5385 22.0391 19.1958Z" fill="#FBB03B"/>
<path d="M25.962 0.48263C26.0791 0.482527 26.0791 0.482527 26.1985 0.482422C27.6054 0.48437 28.9786 0.574 30.3672 0.812708C30.5106 0.837231 30.5106 0.837231 30.657 0.862249C37.3433 2.0578 43.206 6.04264 47.0941 11.5569C49.1762 14.5715 50.5585 18.0269 51.1876 21.633C51.204 21.7245 51.2205 21.816 51.2375 21.9103C51.7129 24.658 51.6664 27.6247 51.1876 30.3674C51.1707 30.4643 51.1538 30.5613 51.1364 30.6611C50.4231 34.585 50.4231 34.585 49.6641 35.344C49.1614 35.1429 48.6586 34.9418 48.1407 34.7346C48.1838 34.5915 48.2268 34.4484 48.2712 34.301C48.3293 34.107 48.3874 33.913 48.4454 33.719C48.4876 33.5783 48.4876 33.5783 48.5306 33.4347C50.4612 26.9439 49.8819 20.4246 46.7107 14.4197C45.7174 12.5912 44.3962 10.9449 42.961 9.44552C42.9132 9.395 42.8655 9.34448 42.8163 9.29243C42.0449 8.47952 41.2189 7.77796 40.3204 7.10958C40.2344 7.0448 40.2344 7.0448 40.1466 6.97871C36.8389 4.49573 32.9408 2.96669 28.8438 2.43771C28.772 2.42813 28.7002 2.41856 28.6261 2.4087C22.6419 1.70637 16.6216 3.49432 11.7877 7.01437C11.6742 7.09681 11.6742 7.09681 11.5584 7.18092C10.9105 7.66372 10.3563 8.18341 9.75006 8.73458C11.5599 8.7681 13.3697 8.80161 15.2344 8.83614C15.2344 9.40591 15.2344 9.97568 15.2344 10.5627C14.1971 10.5719 13.1597 10.5793 12.1224 10.5838C11.6407 10.5859 11.159 10.5887 10.6773 10.5934C10.2124 10.5978 9.74748 10.6002 9.28254 10.6013C9.10522 10.602 8.9279 10.6035 8.75059 10.6057C8.50208 10.6086 8.25369 10.609 8.00517 10.6088C7.93197 10.6103 7.85877 10.6117 7.78335 10.6133C7.44108 10.6105 7.21575 10.5652 6.91105 10.4062C6.62991 10.0684 6.63523 9.78477 6.64553 9.36449C6.64546 9.28518 6.64538 9.20587 6.64531 9.12416C6.64566 8.86252 6.64961 8.60105 6.65359 8.33944C6.65454 8.15786 6.65526 7.97627 6.65577 7.79469C6.6577 7.31713 6.66269 6.83965 6.66831 6.36212C6.67351 5.87469 6.67583 5.38725 6.67838 4.8998C6.68383 3.94365 6.69276 2.98757 6.70318 2.03146C7.27295 2.03146 7.84271 2.03146 8.42974 2.03146C8.46326 3.77427 8.49677 5.51708 8.53131 7.31271C8.79943 7.0781 9.06756 6.84349 9.34381 6.60177C14.0372 2.67591 19.8343 0.487497 25.962 0.48263Z" fill="#1C1F35"/>
<path d="M1.92973 17.3672C2.53959 17.4331 3.08762 17.6574 3.65629 17.875C3.6338 17.952 3.61132 18.029 3.58815 18.1083C1.61927 24.9016 1.99482 31.5843 5.44276 37.8665C6.41481 39.58 7.68029 41.1351 9.0391 42.5547C9.08685 42.6052 9.13461 42.6557 9.18381 42.7078C9.9552 43.5207 10.7812 44.2222 11.6797 44.8906C11.7371 44.9338 11.7944 44.977 11.8534 45.0215C15.2044 47.5369 19.113 49.0303 23.2579 49.5625C23.3232 49.5721 23.3885 49.5816 23.4558 49.5915C29.5452 50.4021 35.812 48.3359 40.6296 44.6675C41.1976 44.2248 41.711 43.7508 42.25 43.2656C40.4402 43.2321 38.6304 43.1986 36.7657 43.1641C36.7657 42.5943 36.7657 42.0245 36.7657 41.4375C37.803 41.4283 38.8403 41.4209 39.8777 41.4164C40.3594 41.4143 40.8411 41.4115 41.3228 41.4069C41.7877 41.4024 42.2526 41.4 42.7176 41.399C42.8949 41.3982 43.0722 41.3967 43.2495 41.3945C43.498 41.3916 43.7464 41.3912 43.9949 41.3914C44.0681 41.3899 44.1413 41.3885 44.2167 41.387C44.5587 41.3898 44.7844 41.4351 45.089 41.5934C45.3716 41.9337 45.3648 42.222 45.3546 42.645C45.3546 42.7253 45.3547 42.8056 45.3548 42.8884C45.3544 43.1533 45.3505 43.4181 45.3465 43.683C45.3456 43.8668 45.3448 44.0507 45.3443 44.2346C45.3424 44.7181 45.3374 45.2016 45.3318 45.6852C45.3266 46.1787 45.3243 46.6723 45.3217 47.1659C45.3163 48.134 45.3076 49.1022 45.2969 50.0703C45.0282 50.073 44.7595 50.0751 44.4908 50.0767C44.4141 50.0775 44.3375 50.0784 44.2585 50.0792C44.0629 50.0801 43.8674 50.0756 43.6719 50.0703C43.504 49.9024 43.5534 49.7036 43.5495 49.4724C43.5475 49.3667 43.5454 49.261 43.5434 49.152C43.5408 48.9795 43.5408 48.9795 43.5382 48.8036C43.5361 48.6865 43.534 48.5694 43.5318 48.4488C43.5252 48.0731 43.5192 47.6974 43.5132 47.3218C43.5088 47.0678 43.5044 46.8138 43.4999 46.5599C43.489 45.9357 43.4787 45.3116 43.4688 44.6875C43.3871 44.7593 43.3871 44.7593 43.3037 44.8325C43.2315 44.8957 43.1593 44.959 43.085 45.0242C43.0137 45.0867 42.9425 45.1492 42.8691 45.2136C38.1905 49.2777 32.2306 51.5127 26.0381 51.5176C25.921 51.5177 25.921 51.5177 25.8016 51.5178C24.3947 51.5158 23.0215 51.4262 21.6329 51.1875C21.5372 51.1711 21.4416 51.1548 21.3431 51.138C14.7857 49.9655 8.82995 46.063 5.02882 40.6117C2.09677 36.3051 0.451042 31.3188 0.476112 26.0952C0.476298 26.0141 0.476483 25.933 0.476673 25.8495C0.487835 22.9236 0.989502 20.1362 1.92973 17.3672Z" fill="#1C1F35"/>
</g>
<defs>
<clipPath id="clip0_328_770">
<rect width="52" height="52" fill="white"/>
</clipPath>
</defs>
</svg>
