<svg width="52" height="56" viewBox="0 0 52 56" fill="none" xmlns="http://www.w3.org/2000/svg">
<path d="M25.6598 7.16494V1" stroke="#1C1F35" stroke-width="2" stroke-linecap="round" stroke-linejoin="round"/>
<path d="M50.3195 35.9347C46.5692 49.0352 29.2046 53.6075 26.1221 54.3268C25.8187 54.404 25.5008 54.404 25.1974 54.3268C22.1149 53.6075 4.75034 49.0352 1 35.9347V27.1497C0.999964 26.717 1.13652 26.2953 1.39021 25.9447C1.64389 25.5942 2.00176 25.3327 2.4128 25.1974L25.0176 17.6454C25.436 17.5166 25.8835 17.5166 26.3019 17.6454L48.9067 25.1974C49.3178 25.3327 49.6756 25.5942 49.9293 25.9447C50.183 26.2953 50.3195 26.717 50.3195 27.1497V35.9347Z" stroke="#1C1F35" stroke-width="2" stroke-linecap="round" stroke-linejoin="round"/>
<path d="M26.1276 47.6652C23.6888 47.1036 9.95013 43.5341 6.98291 33.3066" stroke="#1C1F35" stroke-width="2" stroke-linecap="round" stroke-linejoin="round"/>
<path d="M6.98291 9.98242V23.1357L25.5293 16.5548L44.0757 23.1357V9.98242C44.0757 8.32557 42.7326 6.98242 41.0757 6.98242H9.98291C8.32606 6.98242 6.98291 8.32557 6.98291 9.98242Z" fill="#FBD264" stroke="#1C1F35" stroke-width="2"/>
<path d="M25.6598 37.99V17.543" stroke="#1C1F35" stroke-width="2" stroke-linecap="round" stroke-linejoin="round"/>
<path d="M30.9137 36.8963L30.9137 28.5205" stroke="#1C1F35" stroke-width="2" stroke-linecap="round" stroke-linejoin="round"/>
<path d="M11.7689 17.7513V11.7686" stroke="#1C1F35" stroke-width="2" stroke-linecap="round" stroke-linejoin="round"/>
<path d="M48.8617 20.1449V9.37598" stroke="#1C1F35" stroke-width="2" stroke-linecap="round" stroke-linejoin="round"/>
</svg>
