<svg width="57" height="46" viewBox="0 0 57 46" fill="none" xmlns="http://www.w3.org/2000/svg">
<path d="M2.33325 45H54.7142" stroke="#141414" stroke-width="2" stroke-linecap="round" stroke-linejoin="round"/>
<path d="M32.7142 45V2.91304C32.7142 2.40567 32.5092 1.91908 32.1443 1.56032C31.7795 1.20155 31.2846 1 30.7686 1H7.42165C6.90565 1 6.41079 1.20155 6.04592 1.56032C5.68105 1.91908 5.47607 2.40567 5.47607 2.91304V45" stroke="#141414" stroke-width="2" stroke-linecap="round" stroke-linejoin="round"/>
<path d="M32.7144 13.5713H48.5715C50.2283 13.5713 51.5715 14.9144 51.5715 16.5713V43.9522H32.7144V13.5713Z" fill="#FBD264" stroke="#141414" stroke-width="2" stroke-linecap="round" stroke-linejoin="round"/>
<path d="M13.8572 10.4287H21.1905" stroke="#141414" stroke-width="2" stroke-linecap="round" stroke-linejoin="round"/>
<path d="M1.28564 40.8096L1.28564 26.1429" stroke="#141414" stroke-width="2" stroke-linecap="round" stroke-linejoin="round"/>
<path d="M55.7617 30.333L55.7617 15.6663" stroke="#141414" stroke-width="2" stroke-linecap="round" stroke-linejoin="round"/>
<path d="M35.8572 9.38086L43.1905 9.38086" stroke="#141414" stroke-width="2" stroke-linecap="round" stroke-linejoin="round"/>
<path d="M17 26.1426H24.3333" stroke="#141414" stroke-width="2" stroke-linecap="round" stroke-linejoin="round"/>
<path d="M13.8572 35.5713H21.1905" stroke="#141414" stroke-width="2" stroke-linecap="round" stroke-linejoin="round"/>
<path d="M40.0476 35.5713H44.2381" stroke="#141414" stroke-width="2" stroke-linecap="round" stroke-linejoin="round"/>
<path d="M40.0476 26.1426H44.2381" stroke="#141414" stroke-width="2" stroke-linecap="round" stroke-linejoin="round"/>
</svg>
